<svg xmlns="http://www.w3.org/2000/svg" width="229" height="173">
  <path fill="#9AA4A8" fill-rule="evenodd" d="M110.8 140.7c-.67-1-.9-2.32-.65-3.67-.23-1.16-.8-2.84-2.03-4.46-.4-.54-.83-.92-1.35-1.18-.05.3-.1.6-.12.9-.2 2.2-.1 5.5 1.72 8.9-3.25-4.1-4.26-6.7-4.74-8.9-.25 2.7-.53 5.8 1.83 10.9-3.83-4.2-5.04-7.6-5.5-10.7-.12.7-.2 1.7-.14 3.2.1 1.4.38 3.4 1.04 6.4-2.54-3.7-3.84-8.7-3.85-10.8-.6-.3-1.1-.6-1.3-1.1-.6-1.4-.3-3.9 1.4-5.8 1-1.2 4.8-2.4 7.1-2.4 1 0 1.7.2 1.9.7.1.2 1.2 1.1 1.5 1.4.7.4 1.3.7 1.6 1.3.2.4.4.8.4 1.3l.9 1.7 1 2.3c.4.9.9 1.6 1.2 2.1.5-.3 1-.6 1.6-.7-.5-1.2-1.3-2.7-2.3-3.8 1.4-.3 2.4-.8 4.8-.8h.9c-1.4-2.8-2.6-3.8-2.4-3.9-1.8-1.9-4.3-4.1-7.6-5.7-6.3-3.1-10.5-3.6-11.9-3.7-.5.4-2.5 1.7-5.1 4.2-2.3 2.2-4.6 5.5-5.5 6.6-.7-.3-7.8-3.6-22.9-14.7-12.5-9.3-18.1-17.3-19.8-20-5.8 17.7-7.3 33.9-7.3 32.2-1.3-2.8-10.5-23-15.4-44.5-4.6-20.4-4.3-35.7-4.2-39C5.3 44.6 0 51.7 0 51.7s2.26-5.88 14.72-14.17C27.8 28.83 40.3 31.5 40.6 30.6c.3-.9-1.66-2.72-1.66-2.72s5.6.9 17.97 8.3c7.4 4.37 12.8 8.1 16.5 10.7-1.9-3.55-6.8-12.07-34.1-36.48 28.9 21.77 36.5 32.06 38.5 36.2 2 .26 3.4 1.9 3.4 3.9 0 1.25-.6 2.03-1.5 3.08-.2 3.07.2 10.1 4.7 20.28 2.9 6.5 5.3 10.3 6.7 12.25 1.8 1.1 4.5 3.1 5.5 4.2 1.6 1.5.5 2.7.5 2.7s5.3 5.8 14.5 11.6c.7.5 1.3.8 2 1.2.1 0 1.5-.5 2.2-.5.7 0 1.2.8 9 1.5s9.3-1.8 9.7-1.8c.5 0 2 .7 2.8 1.3 1 .7 2 1.3 2.4 1.9.2-.2.4-.5.6-.8-.1-.1-.5-.6-1.1-1.1-.5-.4-1-.6.3-.8.5 0 .8-.1 1.2-.1.5 0 .8.1 1.1.2.4-.5.8-1.1 1.2-1.7-.2-.2-.5-.5-1-.8-.6-.4-1.1-.5.2-.8.6-.1 1.2-.2 2-.2.4-.6.8-1.2 1.2-1.9l-.8-.6c-.6-.3-1.1-.5.2-.8.6-.1 1.1-.2 1.6-.2.4-.6.7-1.3.6-2.3-.6-.4-1.1-.5.3-.8.3-.1.6-.1.9-.2.4-.7.7-1.4.5-2.4-.6-.3-1.2-.3.1-.8l.9-.3.6-2c-.7-.2-1.2-.2.3-1l.6-2.6c-.5 0-.7 0 .1-.8l.2-1.2c2-16.2-5-33.1-20.9-34-10.7-.5-14.9 5.4-14.4 12.1 2.8 1.4 6 3.5 8.9 6.8 6.5 7.4 4.7 10.1 4.3 10.5-.2.2-.4.5-.7.6-.7.3-2.1.6-4.4-1.1-1.1-.8-1.3-2.1-2.3-3.8-1.6-2.9-4.3-6.4-4.5-6.6.4.5 2 2.6 1.8 4.7-.3 2.8-.3 3.7 1.7 4.6.8.4 1.8.7 2.2 1 3.4 2.6 5.6 1.9 6.2 1 .1.7.4 2.3 1.4 3.5 1.4 1.7 3.4 2.7 3.4 3.4 0 .7-3.9 4.3-5.5 4.2-.2 0-.5-.1-.7-.2-.3.1-.6.2-1 .2l.5-.5c-.2-.1-.5-.2-.7-.4-.6.4-1.8.9-2.9.8 1-.6 1.6-1.2 1.9-1.6-1-.9-2.1-2.2-3.2-3.9-1.3-2.1-2.2-2.4-2.2-2.4s-2 .4-1.2 4.5c.8 4.2 2.7 6.3 2.3 7.2-.5.9-2.74 1.47-4.44 1.1-1.7-.32-3.75-.8-2.7-3.03 1-2.3.8-7.1-1.17-8.16-.86-.4-4.9-2.8-5.6-3.8-.9-1.2-.87-6.5.1-7.8-.5-1.6-.9-3.5-1.1-5.7-.1-1-.14-2.04-.13-3.36 0-6.2 2.3-11.2 6.2-14.84.16-1.3.4-2.3.66-3.1.4-1.04.5-1.4.6-1.4.1 0 .1.85.1 1.65v1.6l1-.7c.4-1.4.9-2.9 1.4-3.9.4-.7.6-1 .7-1 .1 0-.06.7 0 1.6 0 .82.3 1.3.5 1.62l.86-.44c.2-.9.6-2.1 1.3-3.3.3-.4.4-.6.5-.6.2 0 .2.4.3 1.1.2 1 .7 1.5.9 1.7l.9-.3c.2-.7 1.2-2 2.1-2.86.3-.3.5-.4.5-.4l-.1 1c-.06.5.3 1.1.46 1.5.2-.05.4-.1.7-.1.2-.5.7-1.1 1.4-1.7.4-.4.6-.5.7-.5.2 0 .1.35.1.8-.07.44 0 .8 0 1.1l1.3-.1.6-.56c.5-.4.7-.52.84-.52.2 0 .1.3.1 1.1h1.1c13.9.5 31.5 13.6 30 39.8-.48 7.2-1.3 13.4-2.4 18.7.9-.2 1.9-.5 3.1-1.1 3.3-1.6 4.3-3.1 4.75-3.5.3-.2.7-.2 1.4-.06 2.1-3.5 3.4-6.44 3.98-7.8.1-.24.18-.5.3-.7 0 0-.7-1.2 0-2.77.7-1.6 2.5-4.3 3.7-5.1 1.2-3.37 4.1-12.56 4.2-23.5.1-10.1-.3-17.4-.7-21-1-.6-1.8-1.4-1.8-2.7 0-1.3.8-2.4 2-2.77.3-2.9 2.8-11.1 19.1-29.3-13.5 20.4-13.7 22.9-15.8 28.8 2.1-2.64 5.4-6.74 10.4-11.44 7.9-7.5 11.3-8.4 11.3-8.4s-1.3 1.8-1.1 2.66c.2.9 8-1.8 16.26 6.9 7.8 8.3 9.25 14.1 9.25 14.1s-3.3-6-9.5-11.4c.9 4.7 2.3 13.3 1.4 29.3-1.1 17.9-5.1 32.5-6 35.8.3 2.3-1.7-7.5-6.1-19.9-.7 3.9-3.1 14.55-9.7 27.9-6.6 13.3-14.8 21.8-16.44 23.5-.1 0-1.5-2.1-3.7-4.36-2-2-4-3.2-4.8-3.3-.5.1-4.85 1-13.2 5.6-5 4.1-6.7 8.9-11.57 13.8-1.7 1.9-4 3.9-7 5.9-1.6 1-3.2 2-4.7 2.9.2.4.4.7.5 1.1l1.5-.9c3.1-1.5 4.8-1.9 6.5-1.9 1.1 0 4.4.3 6.26 1.6 1.86 1.34 2.84 3.8 1.86 4.84 1.2 2.7 1.37 6.97-2.04 13.6.5-3.24.65-5.65.6-7.5-1.06 1.86-2.66 3.9-4.9 6.05 2.6-5.2 3.1-8.15 2.95-10.05-.6 1.9-2.47 4.3-6.6 7.1 3.4-4.4 4.03-6.8 3.8-8.25-1.4-.3-2.8-1-3.5-2.16-.3-.5-.8-.7-1.4-.7-.7.15-1.3.4-1.9.6-1.65 1.05-3.34 3.3-3.75 6.85 0 0-.5-2.7.6-5.4l-1.7.6-2 1.3c-1.1 1.25-2.7 1.86-4.94 1-1-.4-1.6-1.3-1.9-2.4-2.7 1.26-5.8 2.7-8.2 3.1-5.8 3.1-12.2 6.67-18.6 9.97 28.7 18.6 48.8 13.1 58.2 10.3-19.6 8.2-37.5 7.5-62-8.35-11.15 5.5-22.1 9.62-31.4 9.2-15.7-.7-18.68-10.5-17.2-16.5 1.86-7.6 11.2-11.9 18.9-10.3 10.92 2.3 15.15 5.2 24.74 10.7-1.9 1-3.8 1.8-3.9 1.8-9.3-5-18.5-8.95-26.2-7.25-11 2.4-9 18.3 11.3 13.8 7.3-1.6 9-2.4 16.4-6 7.4-3.5 15.7-9.5 21.1-13.4z"/>
</svg>
